<svg width="40" height="40" viewBox="0 0 40 40" fill="none" xmlns="http://www.w3.org/2000/svg">
<rect width="40" height="40" fill="#F0F3F9"/>
<path d="M33.3333 13.3334H6.66663C5.28591 13.3334 4.16663 14.4527 4.16663 15.8334V32.5C4.16663 33.8808 5.28591 35 6.66663 35H33.3333C34.714 35 35.8333 33.8808 35.8333 32.5V15.8334C35.8333 14.4527 34.714 13.3334 33.3333 13.3334Z" stroke="#303030" stroke-width="3" stroke-linejoin="round"/>
<path d="M26.0522 5.61442L27.1129 4.55376L26.0522 5.61442C26.1713 5.73353 26.278 5.86274 26.3714 6.00004H25.9539C25.9105 5.9483 25.8647 5.89827 25.8165 5.85013L25.6666 6.00005L25.8165 5.85012C25.7684 5.80198 25.7184 5.75616 25.6666 5.71273V5.29524C25.8039 5.38864 25.9331 5.49532 26.0522 5.61442ZM26.5 9.00004H26.8333V11.8334H26.5V9.00004ZM22.6666 5.16671H17.3333V4.83337H22.6666V5.16671ZM14.046 6.00004H13.6285C13.7219 5.86274 13.8286 5.73353 13.9477 5.61442C14.0668 5.49532 14.196 5.38864 14.3333 5.29523V5.71273C14.2815 5.75616 14.2315 5.80198 14.1834 5.85013C14.1352 5.89827 14.0894 5.9483 14.046 6.00004ZM13.5 9.00004V11.8334H13.1666V9.00004H13.5Z" fill="black" stroke="#303030" stroke-width="3"/>
<path d="M15 24.1667H25M20 19.1667V29.1667" stroke="#303030" stroke-width="3" stroke-linecap="round" stroke-linejoin="round"/>
</svg>
