<svg width="40" height="40" viewBox="0 0 40 40" fill="none" xmlns="http://www.w3.org/2000/svg">
<path d="M29.196 14.76C29.3835 14.5724 29.4888 14.3181 29.4888 14.053C29.4888 13.7878 29.3835 13.5335 29.196 13.346L26.65 10.8C26.5578 10.7045 26.4474 10.6283 26.3254 10.5759C26.2034 10.5235 26.0722 10.4959 25.9394 10.4947C25.8066 10.4936 25.675 10.5189 25.5521 10.5692C25.4292 10.6194 25.3175 10.6937 25.2236 10.7876C25.1297 10.8815 25.0555 10.9931 25.0052 11.116C24.9549 11.2389 24.9296 11.3706 24.9308 11.5034C24.9319 11.6362 24.9595 11.7674 25.0119 11.8894C25.0643 12.0114 25.1405 12.1217 25.236 12.214L27.78 14.76C27.9676 14.9474 28.2219 15.0528 28.487 15.0528C28.7522 15.0528 29.0085 14.9474 29.196 14.76ZM15.62 26.922C15.7129 27.015 15.7865 27.1253 15.8367 27.2467C15.8869 27.3682 15.9127 27.4983 15.9126 27.6297C15.9125 27.7611 15.8865 27.8912 15.8361 28.0125C15.7858 28.1339 15.712 28.2441 15.619 28.337C15.5261 28.4298 15.4157 28.5034 15.2943 28.5536C15.1728 28.6038 15.0427 28.6296 14.9113 28.6295C14.7799 28.6294 14.6498 28.6035 14.5285 28.5531C14.4071 28.5027 14.2969 28.429 14.204 28.336L11.66 25.792C11.4723 25.6045 11.3667 25.35 11.3665 25.0847C11.3664 24.9533 11.3922 24.8232 11.4424 24.7017C11.4926 24.5803 11.5662 24.47 11.659 24.377C11.7519 24.284 11.8621 24.2102 11.9835 24.1599C12.1048 24.1095 12.2349 24.0835 12.3663 24.0834C12.6317 24.0832 12.8863 24.1885 13.074 24.376L15.62 26.922ZM34.338 5.69397C33.7882 5.14426 33.0425 4.83545 32.265 4.83545C31.4875 4.83545 30.7419 5.14426 30.192 5.69397L28.952 6.93398L28.462 6.44598C28.0756 6.05927 27.6082 5.76312 27.0935 5.57885C26.5788 5.39457 26.0296 5.32678 25.4855 5.38034C24.9415 5.43391 24.4161 5.6075 23.9472 5.88861C23.4783 6.16971 23.0776 6.55134 22.774 7.00598C21.8144 6.79765 20.8132 6.90562 19.9201 7.31374C19.027 7.72186 18.2901 8.40817 17.8195 9.27002C17.349 10.1319 17.1701 11.1229 17.3097 12.0948C17.4494 13.0668 17.8999 13.9674 18.594 14.662L19.91 15.976L15.972 19.914L14.656 18.598C13.9615 17.9039 13.0609 17.4533 12.0889 17.3137C11.1169 17.1741 10.1259 17.3529 9.26407 17.8235C8.40223 18.294 7.71591 19.031 7.30779 19.9241C6.89967 20.8172 6.7917 21.8184 7.00003 22.778C6.54657 23.0825 6.16609 23.4836 5.88583 23.9524C5.60557 24.4213 5.43249 24.9463 5.37897 25.4899C5.32545 26.0335 5.39282 26.5823 5.57626 27.0968C5.7597 27.6113 6.05467 28.0788 6.44003 28.466L6.93003 28.956L5.65603 30.23C5.1057 30.7795 4.79622 31.5251 4.79566 32.3029C4.79509 33.0806 5.1035 33.8267 5.65303 34.377C6.20256 34.9273 6.94819 35.2368 7.72591 35.2373C8.50362 35.2379 9.2497 34.9295 9.80003 34.38L11.076 33.104L11.564 33.592C11.9505 33.9787 12.4179 34.2748 12.9326 34.4591C13.4473 34.6434 13.9964 34.7112 14.5405 34.6576C15.0846 34.604 15.61 34.4305 16.0789 34.1493C16.5477 33.8682 16.9484 33.4866 17.252 33.032C18.2116 33.2403 19.2128 33.1323 20.1059 32.7242C20.999 32.3161 21.736 31.6298 22.2065 30.7679C22.6771 29.9061 22.8559 28.9151 22.7163 27.9431C22.5767 26.9711 22.1261 26.0705 21.432 25.376L20.116 24.062L24.054 20.126L25.37 21.44C26.0648 22.1332 26.9651 22.5829 27.9366 22.722C28.9081 22.8611 29.8985 22.6821 30.7599 22.2117C31.6212 21.7413 32.3072 21.0048 32.7153 20.1123C33.1234 19.2198 33.2317 18.2192 33.024 17.26C33.224 17.1266 33.4107 16.9733 33.584 16.8C34.2765 16.1063 34.6654 15.1662 34.6654 14.186C34.6654 13.2058 34.2765 12.2657 33.584 11.572L33.096 11.084L34.336 9.84398C34.8844 9.29302 35.1922 8.54732 35.1922 7.76998C35.1922 6.99263 34.8844 6.24693 34.336 5.69598M31.68 9.66798L30.364 8.34797L31.604 7.10798C31.6907 7.02143 31.7936 6.95281 31.9068 6.90603C32.02 6.85924 32.1413 6.83521 32.2637 6.8353C32.3862 6.83539 32.5075 6.85961 32.6206 6.90657C32.7337 6.95352 32.8365 7.0223 32.923 7.10898C33.0096 7.19565 33.0782 7.29852 33.125 7.41171C33.1718 7.5249 33.1958 7.6462 33.1957 7.76868C33.1956 7.89116 33.1714 8.01243 33.1244 8.12555C33.0775 8.23867 33.0087 8.34143 32.922 8.42798L31.68 9.66798ZM22.64 18.708L18.702 22.646L17.384 21.328L21.322 17.392L22.64 18.708ZM9.66003 31.688L8.38603 32.962C8.21125 33.137 7.97409 33.2355 7.72673 33.2356C7.47937 33.2358 7.24207 33.1378 7.06703 32.963C6.89198 32.7882 6.79354 32.551 6.79335 32.3037C6.79317 32.0563 6.89125 31.819 7.06603 31.644L8.34403 30.37L9.66003 31.688ZM24.648 7.85998C24.9667 7.54243 25.3982 7.36413 25.848 7.36413C26.2979 7.36413 26.7294 7.54243 27.048 7.85998L32.172 12.984C32.3782 13.1889 32.5282 13.4433 32.6077 13.7229C32.6872 14.0025 32.6935 14.2978 32.6261 14.5805C32.5586 14.8632 32.4196 15.1239 32.2224 15.3374C32.0252 15.551 31.7765 15.7102 31.5 15.8C31.3661 15.8436 31.2429 15.915 31.1385 16.0096C31.0341 16.1041 30.9508 16.2197 30.8942 16.3486C30.8375 16.4776 30.8088 16.6171 30.8098 16.7579C30.8108 16.8988 30.8415 17.0378 30.9 17.166C31.1478 17.7086 31.1971 18.321 31.0394 18.8963C30.8817 19.4716 30.527 19.9733 30.0372 20.3138C29.5475 20.6543 28.9536 20.812 28.3594 20.7594C27.7652 20.7068 27.2084 20.4472 26.786 20.026L20.006 13.248C19.5848 12.8256 19.3252 12.2688 19.2726 11.6746C19.22 11.0804 19.3777 10.4865 19.7182 9.99675C20.0587 9.50696 20.5604 9.15227 21.1357 8.99459C21.711 8.83691 22.3234 8.88624 22.866 9.13398C22.9943 9.1928 23.1335 9.22382 23.2746 9.225C23.4157 9.22618 23.5554 9.19749 23.6846 9.14082C23.8138 9.08415 23.9296 9.00078 24.0243 8.89619C24.1189 8.7916 24.1904 8.66816 24.234 8.53398C24.3167 8.28028 24.4586 8.04792 24.648 7.85998ZM9.64203 20.014C10.1195 19.5367 10.7669 19.2686 11.442 19.2686C12.1171 19.2686 12.7646 19.5367 13.242 20.014L20.02 26.792C20.4413 27.2143 20.7009 27.7712 20.7535 28.3654C20.8061 28.9596 20.6484 29.5534 20.3079 30.0432C19.9674 30.533 19.4657 30.8877 18.8904 31.0454C18.3151 31.203 17.7027 31.1537 17.16 30.906C17.0319 30.8475 16.8928 30.8167 16.752 30.8157C16.6111 30.8147 16.4717 30.8435 16.3427 30.9001C16.2137 30.9568 16.0982 31.04 16.0036 31.1444C15.9091 31.2488 15.8377 31.372 15.794 31.506C15.704 31.7817 15.5447 32.0296 15.3315 32.2262C15.1182 32.4228 14.8582 32.5615 14.5761 32.6289C14.294 32.6963 13.9993 32.6902 13.7203 32.6113C13.4412 32.5323 13.187 32.3832 12.982 32.178L7.85603 27.054C7.65085 26.849 7.50166 26.5948 7.42272 26.3157C7.34378 26.0367 7.33773 25.742 7.40514 25.4599C7.47255 25.1778 7.61117 24.9178 7.80776 24.7045C8.00435 24.4913 8.25234 24.332 8.52803 24.242C8.66221 24.1984 8.78566 24.1269 8.89024 24.0322C8.99483 23.9375 9.0782 23.8218 9.13487 23.6926C9.19154 23.5634 9.22023 23.4236 9.21905 23.2825C9.21787 23.1415 9.18685 23.0022 9.12803 22.874C8.91088 22.4019 8.84374 21.8746 8.93565 21.3632C9.02756 20.8518 9.27411 20.3809 9.64203 20.014Z" fill="black"/>
</svg>
