<svg width="60" height="60" viewBox="0 0 60 60" fill="none" xmlns="http://www.w3.org/2000/svg">
<path d="M30 60C46.5685 60 60 46.5685 60 30C60 13.4315 46.5685 0 30 0C13.4315 0 0 13.4315 0 30C0 46.5685 13.4315 60 30 60Z" fill="black"/>
<path d="M29.7265 47.4514C28.4417 49.5675 25.2717 51.2317 22.7635 51.3878C15.7199 51.8263 12.4677 45.7776 12.9316 39.439C13.0459 37.8735 14.9752 28.4367 17.7725 31.6918C18.8175 32.9078 17.1593 35.2405 16.7895 36.7321C15.9597 40.0837 15.7759 45.3705 18.9795 47.5642C22.1115 49.7087 26.8874 47.9302 28.1109 44.4913C26.1315 41.2272 24.0535 31.3811 30.1186 31.4177C35.9261 31.4528 33.8996 41.6059 31.8612 44.7386L31.9382 45.0777C36.2047 50.5423 43.1385 49.4689 43.8593 42.0309C44.0505 40.0605 43.6083 37.934 43.0884 36.0345C42.7105 34.6519 40.8753 32.255 42.9099 31.3542C44.4135 30.6887 45.144 32.2707 45.6654 33.4531C47.4692 37.5411 47.9114 44.2814 45.079 47.9818C41.2345 53.0027 33.86 52.0817 30.1089 47.4544L29.7265 47.4514ZM30.7714 38.6465V34.705C30.7714 34.38 30.1239 34.2269 29.7168 34.4361C28.4515 35.0851 29.6047 39.8655 29.9879 41.1413L30.7722 38.6465H30.7714Z" fill="white"/>
<path d="M38.3087 8.59726C39.2454 8.45086 41.0022 10.4429 41.6655 11.1802C43.7509 13.4994 46.5288 17.6143 46.776 20.7783C47.7433 33.1483 23.4835 30.8284 32.1345 15.5707C32.9061 14.209 36.9822 8.80416 38.3087 8.59651V8.59726ZM34.3701 22.2655C33.5701 22.5 33.4671 23.6667 33.789 24.3263C34.2738 25.3197 37.4438 26.0136 38.5126 26.0129C40.0199 26.0121 44.8347 24.9933 43.4999 22.7435C42.7283 21.4423 39.9766 23.5308 38.5134 23.5338C36.9717 23.5368 35.3852 21.9667 34.3701 22.2647V22.2655Z" fill="white"/>
<path d="M16.6794 24.513C15.7659 23.4165 16.5875 21.8337 18.242 22.2841C20.0757 22.7831 20.2498 23.7354 22.9134 23.1566C23.9098 22.94 25.4208 21.4334 26.3343 22.5904C28.2435 25.0082 22.3778 26.3019 20.6965 26.1354C19.8128 26.048 17.2224 25.1643 16.6794 24.513Z" fill="white"/>
</svg>
